<?xml version="1.0" encoding="UTF-8"?>
<!DOCTYPE svg PUBLIC "-//W3C//DTD SVG 1.1//EN" "http://www.w3.org/Graphics/SVG/1.1/DTD/svg11.dtd">
<!-- Creator: CorelDRAW 2018 (64-Bit) -->
<svg xmlns="http://www.w3.org/2000/svg" xml:space="preserve" width="170.84mm" height="41.8469mm" version="1.1" style="shape-rendering:geometricPrecision; text-rendering:geometricPrecision; image-rendering:optimizeQuality; fill-rule:evenodd; clip-rule:evenodd"
viewBox="0 0 16630.13 4073.51"
 xmlns:xlink="http://www.w3.org/1999/xlink">
 <defs>
  <style type="text/css">
   <![CDATA[
    .fil0 {fill:#FEFEFE}
    .fil4 {fill:#FFF239}
    .fil3 {fill:#FFF212}
    .fil2 {fill:#FEFEFE;fill-rule:nonzero}
    .fil1 {fill:#FFF239;fill-rule:nonzero}
   ]]>
  </style>
 </defs>
 <g id="Layer_x0020_1">
  <metadata id="CorelCorpID_0Corel-Layer"/>
  <path class="fil0" d="M5112.58 4004.68l1.61 -3412.72 1872.11 -0.39c807.13,53.93 1064.72,311.17 1157.13,682.73 46.37,197.46 -10.49,450.85 -58.55,590.37 -86.2,192.2 -323.47,412.27 -598.21,451.13 112.36,55.12 190.42,114.1 264.97,226.48 237.61,340.74 512.33,1299.56 572.9,1462.39l-1209.88 -0.68 0.21 -1267.71c-68.67,-302.91 -1019.29,-306.12 -1062.21,0.05l-7.82 1267.71c-307.78,0.28 -611.82,0.65 -932.26,0.65zm1471.11 -2018.56c290.31,0 525.65,-235.35 525.65,-525.65 0,-290.31 -235.35,-525.65 -525.65,-525.65 -290.31,0 -525.65,235.35 -525.65,525.65 0,290.31 235.35,525.65 525.65,525.65z"/>
  <polygon class="fil1" points="-0,591.54 909.84,591.54 909.84,1894.82 1972.14,1894.82 1972.14,591.54 2881.98,591.54 2881.98,4004.66 1972.14,4004.66 1972.14,2578.43 909.84,2578.43 909.84,4004.66 -0,4004.66 "/>
  <path class="fil2" d="M11160.44 2784.98l0 211.48 -1775.42 0c17.21,164.75 88.52,291.81 213.94,381.97 124.59,89.34 292.62,134.42 504.09,134.42 126.23,0 260.67,-18.03 401.65,-53.28 140.16,-35.25 285.24,-87.71 434.42,-158.2l0 618.86c-140.98,50.82 -287.71,89.34 -440.98,114.76 -152.46,25.41 -312.3,38.52 -478.69,38.52 -461.48,0 -822.14,-121.31 -1081.15,-364.75 -259.84,-243.45 -389.35,-581.15 -389.35,-1013.94 0,-393.44 119.67,-706.56 359.02,-938.53 239.35,-231.97 563.12,-348.36 969.67,-348.36 409.84,0 726.24,119.66 949.18,358.19 222.14,238.53 333.61,578.7 333.61,1018.85zm-767.22 -299.99c-17.21,-169.68 -72.13,-303.28 -163.12,-400 -91.8,-97.55 -207.38,-145.91 -348.36,-145.91 -139.35,0 -253.28,48.36 -343.45,145.91 -89.34,96.72 -144.26,230.32 -163.11,400l1018.04 0zm3886.08 39.34l0 1480.34 -860.66 0 0 -1300.01c0,-198.36 -35.25,-345.9 -105.73,-443.44 -70.5,-96.72 -177.88,-145.09 -322.14,-145.09 -150,0 -270.49,60.66 -360.66,182.79 -90.98,121.31 -136.07,285.24 -136.07,490.16l0 1215.58 -865.58 0 0 -2527.88 786.08 0 0 452.46c100,-169.68 227.86,-299.18 384.43,-387.71 157.37,-89.34 334.42,-133.6 531.14,-133.6 309.02,0 545.08,95.08 706.57,284.43 161.47,190.16 242.62,467.21 242.62,831.96zm1716.39 -1908.2l0 860.66 619.68 0 0 624.59 -619.68 0 0 871.31c0,186.89 30.33,318.86 90.99,395.9 61.47,76.23 165.57,114.76 313.11,114.76 20.49,0 46.72,-2.46 78.69,-8.2 31.97,-5.74 77.86,-15.57 136.88,-30.33l14.76 564.76c-92.62,20.49 -182.79,36.07 -270.5,47.54 -86.88,10.66 -172.95,16.39 -255.74,16.39 -343.44,0 -590.98,-84.43 -744.26,-253.28 -153.29,-168.85 -229.52,-443.45 -229.52,-823.78l0 -895.08 -486.88 0 0 -624.59 535.24 0 0 -584.43 817.22 -276.23z"/>
  <polygon class="fil3" points="3980.32,0 4129.01,423.79 4613.05,422.94 4220.91,684 4371.36,1107.27 3980.32,844.82 3589.27,1107.27 3739.73,684 3347.59,422.94 3831.62,423.79 "/>
  <rect class="fil4" x="3551.46" y="1470.97" width="857.4" height="2533.69"/>
 </g>
</svg>
