<?xml version="1.0" encoding="UTF-8"?>
<!DOCTYPE svg PUBLIC "-//W3C//DTD SVG 1.1//EN" "http://www.w3.org/Graphics/SVG/1.1/DTD/svg11.dtd">
<!-- Creator: CorelDRAW 2018 (64-Bit) -->
<svg xmlns="http://www.w3.org/2000/svg" xml:space="preserve" width="58.2331mm" height="40.1133mm" version="1.1" style="shape-rendering:geometricPrecision; text-rendering:geometricPrecision; image-rendering:optimizeQuality; fill-rule:evenodd; clip-rule:evenodd"
viewBox="0 0 2713 1868.82"
 xmlns:xlink="http://www.w3.org/1999/xlink">
 <defs>
  <style type="text/css">
   <![CDATA[
    .str2 {stroke:#FEFEFE;stroke-width:46.59;stroke-miterlimit:22.9256}
    .str1 {stroke:#FEFEFE;stroke-width:93.18;stroke-miterlimit:22.9256}
    .str0 {stroke:#FEFEFE;stroke-width:139.77;stroke-miterlimit:22.9256}
    .str3 {stroke:#FEFEFE;stroke-width:3.55;stroke-miterlimit:22.9256}
    .fil1 {fill:#FEFEFE}
    .fil0 {fill:#FEFEFE}
   ]]>
  </style>
 </defs>
 <g id="Layer_x0020_1">
  <metadata id="CorelCorpID_0Corel-Layer"/>
  <g id="_2052933043600">
   <path class="fil0 str0" d="M533.34 233.02c110.4,48.78 168.28,46.29 219.93,43.72 41.92,-2.08 40.64,24.84 18.01,53.82 -55.26,70.85 -296.94,355.74 -339.22,742.62 28.08,666.17 1811.25,-367.4 2024.94,-471.55l172.92 -2.32c14.81,-0.39 18.62,4.18 5.3,11 -402.57,205.82 -2211.48,1306.44 -2303.57,503.66 -18.29,-112.65 94.73,-469.3 310.92,-753.89 19.82,-27.16 26.05,-12.69 -4.03,-19.7 -70.66,-16.47 -121.94,-35.3 -147.23,-59.42l42.04 -47.95z"/>
   <path class="fil0 str1" d="M93.7 729.5l355.67 -439.21 -63.67 -5.72 -337.14 400.82c-11.41,17.67 29.53,54.92 45.14,44.11z"/>
   <path class="fil0 str2" d="M1383.85 1845.53c128.64,0 232.94,-104.3 232.94,-232.95 0,-128.65 -104.3,-232.95 -232.94,-232.95 -128.65,0 -232.95,104.3 -232.95,232.95 0,128.65 104.3,232.95 232.95,232.95zm-0 -87.36c80.4,0 145.58,-65.19 145.58,-145.59 0,-80.4 -65.18,-145.59 -145.58,-145.59 -80.4,0 -145.59,65.19 -145.59,145.59 0,80.4 65.19,145.59 145.59,145.59z"/>
   <path class="fil0 str2" d="M680.77 1819.54c83.61,0 151.41,-67.8 151.41,-151.42 0,-83.62 -67.8,-151.42 -151.41,-151.42 -83.62,0 -151.42,67.8 -151.42,151.42 0,83.62 67.8,151.42 151.42,151.42zm-0 -56.79c52.26,0 94.63,-42.37 94.63,-94.63 0,-52.26 -42.37,-94.64 -94.63,-94.64 -52.26,0 -94.63,42.37 -94.63,94.64 0,52.26 42.37,94.63 94.63,94.63z"/>
   <path class="fil0" d="M446.53 269.66c70.75,0 128.11,-57.36 128.11,-128.12 0,-70.75 -57.36,-128.12 -128.11,-128.12 -70.75,0 -128.12,57.36 -128.12,128.12 0,70.75 57.37,128.12 128.12,128.12zm-0 -48.05c44.22,0 80.07,-35.85 80.07,-80.07 0,-44.22 -35.85,-80.08 -80.07,-80.08 -44.22,0 -80.07,35.85 -80.07,80.08 0,44.22 35.85,80.07 80.07,80.07z"/>
   <path class="fil0 str3" d="M446.53 281.32c77.18,0 139.76,-62.58 139.76,-139.77 0,-77.19 -62.58,-139.77 -139.76,-139.77 -77.19,0 -139.77,62.58 -139.77,139.77 0,77.19 62.58,139.77 139.77,139.77zm-0 -52.42c48.24,0 87.35,-39.11 87.35,-87.35 0,-48.24 -39.11,-87.36 -87.35,-87.36 -48.24,0 -87.35,39.12 -87.35,87.36 0,48.24 39.11,87.35 87.35,87.35z"/>
   <circle class="fil0" cx="1383.85" cy="1612.58" r="163.06"/>
   <circle class="fil0" cx="680.76" cy="1668.13" r="163.06"/>
   <circle class="fil1" cx="446.53" cy="141.55" r="116.47"/>
  </g>
 </g>
</svg>
