<?xml version="1.0" encoding="UTF-8"?>
<!DOCTYPE svg PUBLIC "-//W3C//DTD SVG 1.1//EN" "http://www.w3.org/Graphics/SVG/1.1/DTD/svg11.dtd">
<!-- Creator: CorelDRAW 2018 (64-Bit) -->
<svg xmlns="http://www.w3.org/2000/svg" xml:space="preserve" width="33.617mm" height="35.6631mm" version="1.1" style="shape-rendering:geometricPrecision; text-rendering:geometricPrecision; image-rendering:optimizeQuality; fill-rule:evenodd; clip-rule:evenodd"
viewBox="0 0 1436.14 1523.55"
 xmlns:xlink="http://www.w3.org/1999/xlink">
 <defs>
  <style type="text/css">
   <![CDATA[
    .str0 {stroke:#FEFEFE;stroke-width:8.54;stroke-miterlimit:22.9256}
    .fil1 {fill:none}
    .fil0 {fill:#FEFEFE}
   ]]>
  </style>
 </defs>
 <g id="Layer_x0020_1">
  <metadata id="CorelCorpID_0Corel-Layer"/>
  <path class="fil0 str0" d="M4.27 1519.28l0.71 -1514.83 830.99 -0.17c358.27,23.94 472.61,138.12 513.63,303.05 20.58,87.65 -4.66,200.12 -25.99,262.05 -38.26,85.31 -143.58,183 -265.53,200.24 49.88,24.47 84.53,50.65 117.61,100.53 105.47,151.25 227.41,576.85 254.3,649.12l-475.51 -0.27 0.12 -603.34c-38.38,-144.14 -569.73,-145.67 -593.71,0.03l-4.37 603.36c-115.82,0.11 -231.4,0.23 -352.25,0.23zm652.99 -873c141.56,0 256.32,-114.76 256.32,-256.32 0,-141.56 -114.76,-256.32 -256.32,-256.32 -141.56,0 -256.32,114.76 -256.32,256.32 0,141.56 114.76,256.32 256.32,256.32z"/>
  <path class="fil1 str0" d="M657.26 646.28c141.56,0 256.32,-114.76 256.32,-256.32 0,-141.56 -114.76,-256.32 -256.32,-256.32 -141.56,0 -256.32,114.76 -256.32,256.32 0,141.56 114.76,256.32 256.32,256.32z"/>
  <path class="fil1" d="M360.89 915.69c23.99,-145.7 555.33,-144.16 593.71,-0.03l-0.12 604.07 -597.97 0.03 4.37 -604.07z"/>
 </g>
</svg>
